<?xml version="1.0" encoding="utf-8"?>
<!-- Generator: Adobe Illustrator 23.0.1, SVG Export Plug-In . SVG Version: 6.00 Build 0)  -->
<svg version="1.1" id="Layer_1" xmlns="http://www.w3.org/2000/svg" xmlns:xlink="http://www.w3.org/1999/xlink" x="0px" y="0px"
	 viewBox="0 0 55 54" style="enable-background:new 0 0 55 54;" xml:space="preserve">
<style type="text/css">
	.st0{clip-path:url(#SVGID_2_);}
	.st1{fill:#AB9FF2;}
	.st2{fill-rule:evenodd;clip-rule:evenodd;fill:#FFFDF8;}
</style>
<g>
	<defs>
		<rect id="SVGID_1_" x="1.3" y="0.7" width="52.3" height="52.6"/>
	</defs>
	<clipPath id="SVGID_2_">
		<use xlink:href="#SVGID_1_"  style="overflow:visible;"/>
	</clipPath>
	<g class="st0">
		<path class="st1" d="M12.6,0.7h29.9c6.2,0,11.2,5.1,11.2,11.3v30c0,6.2-5,11.3-11.2,11.3H12.6C6.4,53.3,1.3,48.3,1.3,42V12
			C1.3,5.7,6.4,0.7,12.6,0.7z"/>
		<path class="st2" d="M23.9,34.9c-2.1,3.2-5.5,7.2-10.1,7.2c-2.2,0-4.2-0.9-4.2-4.8C9.6,27.3,23,12,35.5,12c7.1,0,9.9,5,9.9,10.6
			c0,7.2-4.7,15.5-9.3,15.5c-1.5,0-2.2-0.8-2.2-2.1c0-0.3,0.1-0.7,0.2-1.1c-1.6,2.7-4.6,5.2-7.5,5.2c-2.1,0-3.1-1.3-3.1-3.2
			C23.5,36.3,23.6,35.6,23.9,34.9z M40.8,22.4c0,1.6-1,2.5-2,2.5c-1.1,0-2-0.8-2-2.5c0-1.6,0.9-2.5,2-2.5
			C39.8,19.9,40.8,20.7,40.8,22.4z M34.7,22.4c0,1.6-1,2.5-2,2.5c-1.1,0-2-0.8-2-2.5s0.9-2.5,2-2.5C33.7,19.9,34.7,20.7,34.7,22.4z"
			/>
	</g>
</g>
</svg>
